<svg width="17" height="25" viewBox="0 0 17 25" fill="none" xmlns="http://www.w3.org/2000/svg">
<g filter="url(#filter0_d_2037_5392)">
<mask id="path-1-outside-1_2037_5392" maskUnits="userSpaceOnUse" x="4" y="3.5" width="10" height="16" fill="black">
<rect fill="white" x="4" y="3.5" width="10" height="16"/>
<path fill-rule="evenodd" clip-rule="evenodd" d="M7.1582 4.5H12.0003V9.50559L10.232 7.67761C8.4938 9.88567 8.50517 13.0921 10.2661 15.2871L12.0003 13.4944V18.5H7.1582L8.89182 16.7078C6.38114 13.726 6.36945 9.25163 8.85676 6.25592L7.1582 4.5Z"/>
</mask>
<path fill-rule="evenodd" clip-rule="evenodd" d="M7.1582 4.5H12.0003V9.50559L10.232 7.67761C8.4938 9.88567 8.50517 13.0921 10.2661 15.2871L12.0003 13.4944V18.5H7.1582L8.89182 16.7078C6.38114 13.726 6.36945 9.25163 8.85676 6.25592L7.1582 4.5Z" fill="#AEF390"/>
<path d="M12.0003 4.5H13.0003V3.5H12.0003V4.5ZM7.1582 4.5V3.5H4.79957L6.43945 5.19527L7.1582 4.5ZM12.0003 9.50559L11.2815 10.2009L13.0003 11.9777V9.50559H12.0003ZM10.232 7.67761L10.9508 6.98235L10.1546 6.15928L9.44626 7.05907L10.232 7.67761ZM10.2661 15.2871L9.4861 15.9129L10.1961 16.7978L10.9849 15.9824L10.2661 15.2871ZM12.0003 13.4944H13.0003V11.0223L11.2815 12.7991L12.0003 13.4944ZM12.0003 18.5V19.5H13.0003V18.5H12.0003ZM7.1582 18.5L6.43945 17.8047L4.79957 19.5H7.1582V18.5ZM8.89182 16.7078L9.61057 17.4031L10.2382 16.7543L9.65677 16.0638L8.89182 16.7078ZM8.85676 6.25592L9.62613 6.89472L10.1988 6.205L9.57551 5.56065L8.85676 6.25592ZM12.0003 3.5H7.1582V5.5H12.0003V3.5ZM13.0003 9.50559V4.5H11.0003V9.50559H13.0003ZM9.51326 8.37288L11.2815 10.2009L12.719 8.81032L10.9508 6.98235L9.51326 8.37288ZM11.0461 14.6614C9.57677 12.8298 9.56692 10.1392 11.0178 8.29616L9.44626 7.05907C7.42068 9.63218 7.43357 13.3544 9.4861 15.9129L11.0461 14.6614ZM11.2815 12.7991L9.54736 14.5919L10.9849 15.9824L12.719 14.1897L11.2815 12.7991ZM13.0003 18.5V13.4944H11.0003V18.5H13.0003ZM7.1582 19.5H12.0003V17.5H7.1582V19.5ZM8.17307 16.0126L6.43945 17.8047L7.87695 19.1953L9.61057 17.4031L8.17307 16.0126ZM8.08739 5.61712C5.29126 8.98476 5.30411 13.9995 8.12686 17.3519L9.65677 16.0638C7.45816 13.4526 7.44764 9.51849 9.62613 6.89472L8.08739 5.61712ZM6.43945 5.19527L8.13801 6.95119L9.57551 5.56065L7.87695 3.80473L6.43945 5.19527Z" fill="#130D31" mask="url(#path-1-outside-1_2037_5392)"/>
</g>
<defs>
<filter id="filter0_d_2037_5392" x="0.799805" y="0.5" width="16.2002" height="24" filterUnits="userSpaceOnUse" color-interpolation-filters="sRGB">
<feFlood flood-opacity="0" result="BackgroundImageFix"/>
<feColorMatrix in="SourceAlpha" type="matrix" values="0 0 0 0 0 0 0 0 0 0 0 0 0 0 0 0 0 0 127 0" result="hardAlpha"/>
<feOffset dy="1"/>
<feGaussianBlur stdDeviation="2"/>
<feComposite in2="hardAlpha" operator="out"/>
<feColorMatrix type="matrix" values="0 0 0 0 0 0 0 0 0 0 0 0 0 0 0 0 0 0 0.35 0"/>
<feBlend mode="normal" in2="BackgroundImageFix" result="effect1_dropShadow_2037_5392"/>
<feBlend mode="normal" in="SourceGraphic" in2="effect1_dropShadow_2037_5392" result="shape"/>
</filter>
</defs>
</svg>
