<svg width="17" height="25" viewBox="0 0 17 25" fill="none" xmlns="http://www.w3.org/2000/svg">
<g filter="url(#filter0_d_2037_5397)">
<mask id="path-1-outside-1_2037_5397" maskUnits="userSpaceOnUse" x="3.00098" y="3.5" width="10" height="16" fill="black">
<rect fill="white" x="3.00098" y="3.5" width="10" height="16"/>
<path fill-rule="evenodd" clip-rule="evenodd" d="M9.84277 4.5H5.00072V9.50559L6.76897 7.67761C8.50718 9.88567 8.49581 13.0921 6.73487 15.2871L5.00072 13.4944V18.5H9.84277L8.10916 16.7078C10.6198 13.726 10.6315 9.25163 8.14422 6.25592L9.84277 4.5Z"/>
</mask>
<path fill-rule="evenodd" clip-rule="evenodd" d="M9.84277 4.5H5.00072V9.50559L6.76897 7.67761C8.50718 9.88567 8.49581 13.0921 6.73487 15.2871L5.00072 13.4944V18.5H9.84277L8.10916 16.7078C10.6198 13.726 10.6315 9.25163 8.14422 6.25592L9.84277 4.5Z" fill="#F0787B"/>
<path d="M5.00072 4.5H4.00072V3.5H5.00072V4.5ZM9.84277 4.5V3.5H12.2014L10.5615 5.19527L9.84277 4.5ZM5.00072 9.50559L5.71947 10.2009L4.00072 11.9777V9.50559H5.00072ZM6.76897 7.67761L6.05022 6.98235L6.8464 6.15928L7.55472 7.05907L6.76897 7.67761ZM6.73487 15.2871L7.51488 15.9129L6.80492 16.7978L6.01612 15.9824L6.73487 15.2871ZM5.00072 13.4944H4.00072V11.0223L5.71947 12.7991L5.00072 13.4944ZM5.00072 18.5V19.5H4.00072V18.5H5.00072ZM9.84277 18.5L10.5615 17.8047L12.2014 19.5H9.84277V18.5ZM8.10916 16.7078L7.39041 17.4031L6.76278 16.7543L7.34421 16.0638L8.10916 16.7078ZM8.14422 6.25592L7.37485 6.89472L6.80218 6.205L7.42547 5.56065L8.14422 6.25592ZM5.00072 3.5H9.84277V5.5H5.00072V3.5ZM4.00072 9.50559V4.5H6.00072V9.50559H4.00072ZM7.48772 8.37288L5.71947 10.2009L4.28197 8.81032L6.05022 6.98235L7.48772 8.37288ZM5.95485 14.6614C7.42421 12.8298 7.43406 10.1392 5.98322 8.29616L7.55472 7.05907C9.5803 9.63218 9.56741 13.3544 7.51488 15.9129L5.95485 14.6614ZM5.71947 12.7991L7.45362 14.5919L6.01612 15.9824L4.28197 14.1897L5.71947 12.7991ZM4.00072 18.5V13.4944H6.00072V18.5H4.00072ZM9.84277 19.5H5.00072V17.5H9.84277V19.5ZM8.82791 16.0126L10.5615 17.8047L9.12402 19.1953L7.39041 17.4031L8.82791 16.0126ZM8.91359 5.61712C11.7097 8.98476 11.6969 13.9995 8.87411 17.3519L7.34421 16.0638C9.54282 13.4526 9.55334 9.51849 7.37485 6.89472L8.91359 5.61712ZM10.5615 5.19527L8.86297 6.95119L7.42547 5.56065L9.12402 3.80473L10.5615 5.19527Z" fill="#130D31" mask="url(#path-1-outside-1_2037_5397)"/>
</g>
<defs>
<filter id="filter0_d_2037_5397" x="0.000976562" y="0.5" width="16.2002" height="24" filterUnits="userSpaceOnUse" color-interpolation-filters="sRGB">
<feFlood flood-opacity="0" result="BackgroundImageFix"/>
<feColorMatrix in="SourceAlpha" type="matrix" values="0 0 0 0 0 0 0 0 0 0 0 0 0 0 0 0 0 0 127 0" result="hardAlpha"/>
<feOffset dy="1"/>
<feGaussianBlur stdDeviation="2"/>
<feComposite in2="hardAlpha" operator="out"/>
<feColorMatrix type="matrix" values="0 0 0 0 0 0 0 0 0 0 0 0 0 0 0 0 0 0 0.35 0"/>
<feBlend mode="normal" in2="BackgroundImageFix" result="effect1_dropShadow_2037_5397"/>
<feBlend mode="normal" in="SourceGraphic" in2="effect1_dropShadow_2037_5397" result="shape"/>
</filter>
</defs>
</svg>
